<?xml version="1.0" encoding="UTF-8"?>
<svg width="236px" height="64px" viewBox="0 0 236 64" version="1.1" xmlns="http://www.w3.org/2000/svg" xmlns:xlink="http://www.w3.org/1999/xlink">
    <!-- Generator: Sketch 44.1 (41455) - http://www.bohemiancoding.com/sketch -->
    <title>Sitebuilder login</title>
    <desc>Created with Sketch.</desc>
    <defs>
        <polygon id="path-1" points="3.2935487e-16 21.1416088 3.2935487e-16 0.290314706 13.1607482 0.290314706 13.1607482 21.1416088"></polygon>
        <polygon id="path-3" points="0.318981765 0.179082353 2.76227588 0.179082353 2.76227588 21.0861835 0.318981765 21.0861835 0.318981765 0.179082353"></polygon>
        <polygon id="path-5" points="0.152740588 0.179082353 2.59603471 0.179082353 2.59603471 21.0861835 0.152740588 21.0861835 0.152740588 0.179082353"></polygon>
        <polygon id="path-7" points="0.223852941 15.6176471 9.41535882 15.6176471 9.41535882 0.218022353 0.223852941 0.218022353 0.223852941 15.6176471"></polygon>
    </defs>
    <g id="Page-1" stroke="none" stroke-width="1" fill="none" fill-rule="evenodd">
        <g id="Sitebuilder-login">
            <g id="Page-1" transform="translate(0.000000, 21.000000)">
                <g id="Group-3" transform="translate(0.000000, 0.167976)">
                    <mask id="mask-2" fill="white">
                        <use xlink:href="#path-1"></use>
                    </mask>
                    <g id="Clip-2"></g>
                    <path d="M5.68128353,8.84531471 C4.12160118,8.68115588 2.44322471,7.72396765 2.44322471,6.00949706 C2.44322471,4.13156176 3.98555412,2.71417353 6.03424235,2.70584412 C7.44607765,2.78566765 8.46781882,3.19797353 9.44721882,4.08123824 C9.60200706,4.22110294 9.81163059,4.28357353 10.0177835,4.25233824 C10.2239365,4.22075588 10.4047541,4.09789706 10.5106071,3.91812059 L11.0659012,2.97412059 C11.2297129,2.69543235 11.1793894,2.34073824 10.9447776,2.11827353 C9.75436588,0.990679412 7.86914235,0.290314706 6.02521882,0.290314706 C2.64660118,0.290314706 -6.94117647e-05,2.80232647 -6.94117647e-05,6.00949706 C-6.94117647e-05,8.83802647 1.90563059,10.6972206 5.36684824,11.2455735 C5.52684235,11.2806265 5.73403647,11.3070029 5.99259529,11.3396265 C8.43207176,11.6481618 10.6896894,12.2957735 10.6896894,14.9223147 C10.6896894,17.1622324 9.12549529,18.7264265 6.88592471,18.7264265 C6.85191294,18.7264265 3.44344824,18.7003971 1.99933647,16.4618676 C1.87717176,16.2720265 1.66963059,16.1540265 1.44438941,16.1446559 C1.21810706,16.13945 1.00258353,16.2366265 0.865148235,16.4157088 L0.22656,17.2489971 C0.0450482353,17.4860382 0.0353305882,17.8129676 0.202612941,18.0604206 C2.24401294,21.0770559 6.69296,21.1405676 6.90431882,21.1416088 C10.4710424,21.0475559 13.1607482,18.4335088 13.1607482,15.0611382 C13.1607482,12.5734206 11.8627482,9.47557353 5.68128353,8.84531471" id="Fill-1" fill="#1D79BC" mask="url(#mask-2)"></path>
                </g>
                <g id="Group-6" transform="translate(15.964706, 0.167976)">
                    <mask id="mask-4" fill="white">
                        <use xlink:href="#path-3"></use>
                    </mask>
                    <g id="Clip-5"></g>
                    <path d="M2.06815824,0.179012941 L1.01309941,0.179012941 C0.629599412,0.179012941 0.318981765,0.489977647 0.318981765,0.873130588 L0.318981765,20.3920659 C0.318981765,20.7755659 0.629599412,21.0861835 1.01309941,21.0861835 L2.06815824,21.0861835 C2.45131118,21.0861835 2.76227588,20.7755659 2.76227588,20.3920659 L2.76227588,0.873130588 C2.76227588,0.489977647 2.45131118,0.179012941 2.06815824,0.179012941" id="Fill-4" fill="#1D79BC" mask="url(#mask-4)"></path>
                </g>
                <path d="M37.9545265,0.485604706 L22.4337088,0.485604706 C22.0505559,0.485604706 21.7395912,0.796569412 21.7395912,1.17972235 L21.7395912,2.29031059 C21.7395912,2.67381059 22.0505559,2.98442824 22.4337088,2.98442824 L28.9584147,2.98442824 L28.9584147,20.7264224 C28.9584147,21.1099224 29.2693794,21.42054 29.6525324,21.42054 L30.7353559,21.42054 C31.1188559,21.42054 31.4294735,21.1099224 31.4294735,20.7264224 L31.4294735,2.98442824 L37.9545265,2.98442824 C38.3376794,2.98442824 38.6486441,2.67381059 38.6486441,2.29031059 L38.6486441,1.17972235 C38.6486441,0.796569412 38.3376794,0.485604706 37.9545265,0.485604706" id="Fill-7" fill="#1D79BC"></path>
                <path d="M53.4055853,0.568968235 L42.3548853,0.568968235 C41.9717324,0.568968235 41.6607676,0.879932941 41.6607676,1.26308588 L41.6607676,20.6435447 C41.6607676,21.0266976 41.9717324,21.3376624 42.3548853,21.3376624 L53.1557029,21.3376624 C53.5392029,21.3376624 53.8498206,21.0266976 53.8498206,20.6435447 L53.8498206,19.5329565 C53.8498206,19.1494565 53.5392029,18.8388388 53.1557029,18.8388388 L44.1595912,18.8388388 L44.1595912,12.4248447 L51.0455853,12.4248447 C51.4290853,12.4248447 51.7397029,12.1142271 51.7397029,11.7307271 L51.7397029,10.6479035 C51.7397029,10.2647506 51.4290853,9.95378588 51.0455853,9.95378588 L44.1595912,9.95378588 L44.1595912,3.01226235 L53.4055853,3.01226235 C53.7887382,3.01226235 54.0997029,2.70164471 54.0997029,2.31814471 L54.0997029,1.26308588 C54.0997029,0.879932941 53.7887382,0.568968235 53.4055853,0.568968235" id="Fill-9" fill="#1D79BC"></path>
                <path d="M63.9976471,9.81485824 L59.5549471,9.81485824 L59.5549471,3.06803471 L63.9976471,3.06803471 C65.8971,3.06803471 67.3852882,4.55587588 67.3852882,6.45532882 C67.3852882,8.33916412 65.8971,9.81485824 63.9976471,9.81485824 M65.4136471,18.81097 L59.5549471,18.81097 L59.5549471,12.3414465 L65.3303529,12.3414465 C67.1805235,12.3414465 68.5232941,13.6842171 68.5232941,15.5343876 C68.5232941,17.4327994 67.2155765,18.81097 65.4136471,18.81097 M68.3501118,10.6616818 L68.2151059,10.5815112 L68.3289412,10.4631641 C68.3379647,10.4537935 68.3466412,10.4440759 68.3553176,10.4343582 C69.3551941,9.27309941 69.8837647,7.89735824 69.8837647,6.45532882 C69.8837647,3.24121706 67.2714529,0.600446471 64.0531765,0.568864118 L57.7505882,0.568864118 C57.3674353,0.568864118 57.0564706,0.879828824 57.0564706,1.26298176 L57.0564706,20.5879112 C57.0564706,20.9714112 57.3674353,21.2820288 57.7505882,21.2820288 L65.3858824,21.2820288 L65.3928235,21.2820288 C68.5274588,21.2500994 71.0776471,18.6721465 71.0776471,15.5343876 C71.0776471,13.5269994 70.0611118,11.70737 68.3501118,10.6616818" id="Fill-11" fill="#2C92D0"></path>
                <path d="M87.9589353,0.430352941 L86.7931647,0.430352941 C86.4096647,0.430352941 86.0990471,0.741317647 86.0990471,1.12447059 L86.0990471,13.8410529 C86.0990471,16.5352706 83.8941824,18.7276412 81.184,18.7276412 C78.4741647,18.7276412 76.2696471,16.5227765 76.2696471,13.8132882 L76.2696471,1.12447059 C76.2696471,0.741317647 75.9590294,0.430352941 75.5755294,0.430352941 L74.3816471,0.430352941 C73.9981471,0.430352941 73.6875294,0.741317647 73.6875294,1.12447059 L73.6882235,13.7546353 C73.6049294,15.6332647 74.3122353,17.4553235 75.6799941,18.8852059 C77.1369471,20.4081 79.1432941,21.2819941 81.184,21.2819941 C85.2817235,21.2819941 88.5621235,17.9710529 88.6530529,13.7296471 L88.6530529,1.12447059 C88.6530529,0.741317647 88.3420882,0.430352941 87.9589353,0.430352941" id="Fill-13" fill="#2C92D0"></path>
                <g id="Group-17" transform="translate(91.970588, 0.167976)">
                    <mask id="mask-6" fill="white">
                        <use xlink:href="#path-5"></use>
                    </mask>
                    <g id="Clip-16"></g>
                    <path d="M1.90191706,0.179012941 L0.846858235,0.179012941 C0.463358235,0.179012941 0.152740588,0.489977647 0.152740588,0.873130588 L0.152740588,20.3920659 C0.152740588,20.7755659 0.463358235,21.0861835 0.846858235,21.0861835 L1.90191706,21.0861835 C2.28507,21.0861835 2.59603471,20.7755659 2.59603471,20.3920659 L2.59603471,0.873130588 C2.59603471,0.489977647 2.28507,0.179012941 1.90191706,0.179012941" id="Fill-15" fill="#2C92D0" mask="url(#mask-6)"></path>
                </g>
                <path d="M108.809917,18.8387 L100.563452,18.8387 L100.563452,1.17965294 C100.563452,0.7965 100.252835,0.485535294 99.8693347,0.485535294 L98.6480347,0.485535294 C98.2645347,0.485535294 97.9539171,0.7965 97.9539171,1.17965294 L97.9539171,20.6434059 C97.9539171,21.0269059 98.2645347,21.3375235 98.6480347,21.3375235 L108.809917,21.3375235 C109.19307,21.3375235 109.504035,21.0269059 109.504035,20.6434059 L109.504035,19.5328176 C109.504035,19.1496647 109.19307,18.8387 108.809917,18.8387" id="Fill-18" fill="#2C92D0"></path>
                <path d="M115.014114,18.8109006 L114.988779,3.01243588 L117.819391,3.01243588 C122.048649,3.01243588 125.621273,6.59790059 125.621273,10.8420829 C125.621273,15.1615771 122.048649,18.8109006 117.819391,18.8109006 L115.014114,18.8109006 Z M117.958561,0.458082941 L113.15492,0.458082941 C112.771767,0.458082941 112.460802,0.769047647 112.460802,1.15220059 L112.460802,20.5878418 C112.460802,20.9713418 112.771767,21.2819594 113.15492,21.2819594 L117.958561,21.2819594 L117.965849,21.2819594 C123.626032,21.2222653 128.231502,16.5390535 128.231502,10.8420829 C128.231502,5.20550059 123.627767,0.547277059 117.958561,0.458082941 L117.958561,0.458082941 Z" id="Fill-20" fill="#2C92D0"></path>
                <path d="M143.016069,0.568968235 L131.965369,0.568968235 C131.582216,0.568968235 131.271252,0.879932941 131.271252,1.26308588 L131.271252,20.6435447 C131.271252,21.0266976 131.582216,21.3376624 131.965369,21.3376624 L142.766187,21.3376624 C143.149687,21.3376624 143.460305,21.0266976 143.460305,20.6435447 L143.460305,19.5329565 C143.460305,19.1494565 143.149687,18.8388388 142.766187,18.8388388 L133.770075,18.8388388 L133.770075,12.4248447 L140.656069,12.4248447 C141.039569,12.4248447 141.350187,12.1142271 141.350187,11.7307271 L141.350187,10.6479035 C141.350187,10.2647506 141.039569,9.95378588 140.656069,9.95378588 L133.770075,9.95378588 L133.770075,3.01226235 L143.016069,3.01226235 C143.399222,3.01226235 143.710187,2.70164471 143.710187,2.31814471 L143.710187,1.26308588 C143.710187,0.879932941 143.399222,0.568968235 143.016069,0.568968235" id="Fill-22" fill="#2C92D0"></path>
                <path d="M149.138395,2.84588235 L152.386866,2.84588235 C154.836407,2.84588235 156.829219,4.83869412 156.829219,7.28823529 C156.829219,9.73777647 154.836407,11.7309353 152.386866,11.7309353 L149.138395,11.7309353 L149.138395,2.84588235 Z M159.322489,20.3862353 L156.043131,13.1045941 L156.152801,13.0341412 C158.088695,11.7746647 159.244748,9.62602353 159.244748,7.28823529 C159.244748,3.56845882 156.223254,0.492129412 152.497925,0.430352941 L147.389219,0.430352941 C147.005719,0.430352941 146.695101,0.741317647 146.695101,1.12447059 L146.695101,20.6711706 C146.695101,21.0546706 147.005719,21.3652882 147.389219,21.3652882 L148.444278,21.3652882 C148.827431,21.3652882 149.138395,21.0546706 149.138395,20.6711706 L149.138395,14.1693706 L152.500354,14.1464647 C152.730801,14.1464647 153.192389,14.1461176 153.767119,14.0385294 L156.890648,20.9571471 C157.002748,21.2052941 157.250548,21.3652882 157.523336,21.3652882 L158.689801,21.3652882 C158.925107,21.3652882 159.144448,21.2459 159.272513,21.0480765 C159.400231,20.8502529 159.419319,20.6010647 159.322489,20.3862353 L159.322489,20.3862353 Z" id="Fill-24" fill="#2C92D0"></path>
                <path d="M188.661072,2.56847824 L188.077666,3.65095471 C186.773072,2.81836059 185.245666,2.42965471 183.663425,2.42965471 C179.026372,2.42965471 175.111549,6.31671353 175.111549,10.9534194 C175.111549,15.5904724 179.026372,19.4775312 183.663425,19.4775312 C185.245666,19.4775312 186.800837,19.0329488 188.133196,18.2003547 L188.688837,19.3105959 C187.161778,20.2271782 185.440366,20.6991782 183.663425,20.6991782 C178.30449,20.6991782 173.917666,16.3401194 173.917666,10.9534194 C173.917666,5.56706647 178.30449,1.17989588 183.663425,1.17989588 C185.440366,1.17989588 187.161778,1.67966059 188.661072,2.56847824" id="Fill-26" fill="#1D79BC"></path>
                <path d="M208.318727,10.8422912 C208.318727,6.20558529 204.542727,2.29041471 200.044845,2.29041471 C195.57438,2.29041471 191.770615,6.20558529 191.770615,10.8422912 C191.770615,15.5067618 195.57438,19.4219324 200.044845,19.4219324 C204.542727,19.4219324 208.318727,15.5067618 208.318727,10.8422912 M209.346368,10.8422912 C209.346368,16.2008794 205.181315,20.58805 200.044845,20.58805 C194.908027,20.58805 190.743321,16.2008794 190.743321,10.8422912 C190.743321,5.48370294 194.908027,1.12464412 200.044845,1.12464412 C205.181315,1.12464412 209.346368,5.48370294 209.346368,10.8422912" id="Fill-28" fill="#1D79BC"></path>
                <polygon id="Fill-30" fill="#1D79BC" points="223.950604 19.0608871 216.703668 2.42948118 213.149786 20.5879459 212.039198 20.5879459 215.787433 0.985716471 217.314492 1.01348118 223.950604 16.2288871 230.530839 1.01348118 232.057898 0.985716471 235.833898 20.5879459 234.723309 20.5879459 231.197192 2.42948118"></polygon>
                <g id="Group-34" transform="translate(165.547059, 15.785624)">
                    <mask id="mask-8" fill="white">
                        <use xlink:href="#path-7"></use>
                    </mask>
                    <g id="Clip-33"></g>
                    <polygon id="Fill-32" fill="#F4A81C" mask="url(#mask-8)" points="9.41535882 9.53585765 0.223852941 0.218022353 1.09254118 13.2774988 3.99395294 10.7401518 6.18667059 15.6177165 7.88170588 14.8555753 5.69176471 9.98425765"></polygon>
                </g>
            </g>
        </g>
    </g>
</svg>